<?xml version="1.0" encoding="utf-8"?>
<!-- Generator: Adobe Illustrator 27.5.0, SVG Export Plug-In . SVG Version: 6.00 Build 0)  -->
<svg version="1.1" id="Layer_1" xmlns="http://www.w3.org/2000/svg" xmlns:xlink="http://www.w3.org/1999/xlink" x="0px" y="0px"
	 viewBox="0 0 450 450" style="enable-background:new 0 0 450 450;" xml:space="preserve">
<g>
	<defs>
		<rect id="SVGID_1_" x="171" y="171" width="108" height="108"/>
	</defs>
	<clipPath id="SVGID_00000100348783684999860370000018091744593273925014_">
		<use xlink:href="#SVGID_1_"  style="overflow:visible;"/>
	</clipPath>
	<g style="opacity:0.98;clip-path:url(#SVGID_00000100348783684999860370000018091744593273925014_);">
		<g>
			<path style="opacity:0;fill:#FFFFFF;" d="M105.873,296.685c-2.716-0.536,121.245-43.146,163.977-34.709
				C281.387,264.255,114.841,298.454,105.873,296.685z"/>
			<path style="opacity:0.0323;fill:#FCFCFC;" d="M106.281,296.56c-2.63-0.534,120.993-43.026,162.467-34.576
				C280.071,264.292,114.958,298.324,106.281,296.56z"/>
			<path style="opacity:0.0645;fill:#F9F9F9;" d="M106.689,296.436c-2.545-0.534,120.742-42.903,160.957-34.444
				C278.757,264.329,115.073,298.195,106.689,296.436z"/>
			<path style="opacity:0.0968;fill:#F5F6F6;" d="M107.097,296.311c-2.458-0.532,120.49-42.773,159.448-34.311
				C277.443,264.367,115.189,298.065,107.097,296.311z"/>
			<path style="opacity:0.129;fill:#F2F2F3;" d="M107.505,296.188c-2.373-0.531,120.239-42.639,157.939-34.179
				C276.13,264.406,115.306,297.935,107.505,296.188z"/>
			<path style="opacity:0.1613;fill:#EFEFF0;" d="M107.914,296.063c-2.288-0.53,119.988-42.497,156.43-34.046
				C274.816,264.445,115.422,297.802,107.914,296.063z"/>
			<path style="opacity:0.1935;fill:#ECECED;" d="M108.322,295.939c-2.203-0.529,119.736-42.348,154.92-33.913
				C273.503,264.485,115.537,297.672,108.322,295.939z"/>
			<path style="opacity:0.2258;fill:#E9E9E9;" d="M108.729,295.815c-2.118-0.528,119.486-42.194,153.411-33.781
				C272.191,264.525,115.651,297.541,108.729,295.815z"/>
			<path style="opacity:0.2581;fill:#E6E6E6;" d="M109.138,295.69c-2.033-0.527,119.235-42.032,151.901-33.648
				C270.881,264.568,115.767,297.409,109.138,295.69z"/>
			<path style="opacity:0.2903;fill:#E2E3E3;" d="M109.546,295.565c-1.948-0.526,118.984-41.863,150.393-33.515
				C269.57,264.611,115.882,297.277,109.546,295.565z"/>
			<path style="opacity:0.3226;fill:#DFE0E0;" d="M109.954,295.441c-1.863-0.526,118.733-41.688,148.883-33.383
				C268.261,264.654,115.995,297.147,109.954,295.441z"/>
			<path style="opacity:0.3548;fill:#DCDCDD;" d="M110.361,295.316c-1.778-0.524,118.482-41.503,147.374-33.25
				C266.952,264.699,116.11,297.013,110.361,295.316z"/>
			<path style="opacity:0.3871;fill:#D9D9DA;" d="M110.77,295.192c-1.694-0.524,118.23-41.308,145.865-33.117
				C265.644,264.745,116.223,296.881,110.77,295.192z"/>
			<path style="opacity:0.4194;fill:#D6D6D7;" d="M111.179,295.068c-1.61-0.524,117.977-41.104,144.354-32.984
				C264.336,264.793,116.337,296.747,111.179,295.068z"/>
			<path style="opacity:0.4516;fill:#D2D3D4;" d="M111.586,294.944c-1.525-0.523,117.724-40.89,142.846-32.853
				C263.029,264.842,116.448,296.613,111.586,294.944z"/>
			<path style="opacity:0.4839;fill:#CFD0D1;" d="M111.994,294.819c-1.443-0.523,117.468-40.664,141.336-32.72
				C261.723,264.893,116.561,296.478,111.994,294.819z"/>
			<path style="opacity:0.5161;fill:#CCCDCE;" d="M112.402,294.695c-1.359-0.524,117.212-40.428,139.827-32.587
				C260.417,264.947,116.672,296.343,112.402,294.695z"/>
			<path style="opacity:0.5484;fill:#C9CACB;" d="M112.81,294.571c-1.276-0.524,116.954-40.178,138.318-32.455
				C259.111,265.002,116.783,296.205,112.81,294.571z"/>
			<path style="opacity:0.5806;fill:#C6C6C8;" d="M113.218,294.446c-1.194-0.525,116.692-39.915,136.809-32.321
				C257.806,265.061,116.893,296.065,113.218,294.446z"/>
			<path style="opacity:0.6129;fill:#C3C3C4;" d="M113.627,294.322c-1.112-0.527,116.428-39.639,135.299-32.189
				C256.5,265.123,117.003,295.923,113.627,294.322z"/>
			<path style="opacity:0.6452;fill:#BFC0C1;" d="M114.034,294.197c-1.03-0.529,116.16-39.345,133.79-32.056
				C255.193,265.189,117.113,295.78,114.034,294.197z"/>
			<path style="opacity:0.6774;fill:#BCBDBE;" d="M114.442,294.073c-0.948-0.532,115.888-39.037,132.28-31.924
				C253.888,265.259,117.222,295.633,114.442,294.073z"/>
			<path style="opacity:0.7097;fill:#B9BABB;" d="M114.851,293.949c-0.868-0.536,115.61-38.712,130.77-31.791
				C252.579,265.335,117.331,295.48,114.851,293.949z"/>
			<path style="opacity:0.7419;fill:#B6B7B8;" d="M115.259,293.824c-0.788-0.542,115.326-38.368,129.261-31.658
				C251.27,265.417,117.44,295.324,115.259,293.824z"/>
			<path style="opacity:0.7742;fill:#B3B4B5;" d="M115.667,293.7c-0.708-0.55,115.035-38.009,127.752-31.526
				C249.956,265.507,117.55,295.163,115.667,293.7z"/>
			<path style="opacity:0.8065;fill:#AFB0B2;" d="M116.075,293.576c-0.626-0.559,114.733-37.627,126.243-31.394
				C248.638,265.605,117.663,294.993,116.075,293.576z"/>
			<path style="opacity:0.8387;fill:#ACADAF;" d="M116.483,293.452c-0.544-0.572,114.419-37.228,124.734-31.261
				C247.313,265.719,117.781,294.815,116.483,293.452z"/>
			<path style="opacity:0.871;fill:#A9AAAC;" d="M116.892,293.328c-0.459-0.588,114.091-36.81,123.224-31.129
				C245.977,265.845,117.906,294.627,116.892,293.328z"/>
			<path style="opacity:0.9032;fill:#A6A7A9;" d="M117.299,293.203c-0.368-0.607,113.745-36.37,121.714-30.995
				C244.624,265.992,118.044,294.433,117.299,293.203z"/>
			<path style="opacity:0.9355;fill:#A3A4A6;" d="M117.707,293.079c-0.267-0.63,113.375-35.917,120.205-30.863
				C243.248,266.164,118.198,294.236,117.707,293.079z"/>
			<path style="opacity:0.9677;fill:#9FA1A3;" d="M118.115,292.954c-0.152-0.649,112.975-35.452,118.696-30.73
				C241.836,266.369,118.371,294.048,118.115,292.954z"/>
			<path style="fill:#808080;" d="M118.523,292.83c-0.025-0.662,112.531-34.986,117.187-30.598
				C240.364,266.619,118.558,293.883,118.523,292.83z"/>
		</g>
		<g>
			<path style="opacity:0;fill:#FFFFFF;" d="M187.534,237.066c-5.536,1.108,13.224,38.265,100.277,20.816
				C311.329,253.168,205.808,233.404,187.534,237.066z"/>
			<path style="opacity:0.0323;fill:#FCFCFC;" d="M187.652,237.168c-5.433,1.101,13.762,37.963,98.704,20.869
				C309.81,253.267,205.456,233.58,187.652,237.168z"/>
			<path style="opacity:0.0645;fill:#F9F9F9;" d="M187.769,237.27c-5.329,1.093,14.334,37.829,97.13,20.922
				C308.3,253.413,205.104,233.755,187.769,237.27z"/>
			<path style="opacity:0.0968;fill:#F5F6F6;" d="M187.886,237.371c-5.226,1.085,14.887,37.602,95.555,20.975
				C306.784,253.534,204.751,233.93,187.886,237.371z"/>
			<path style="opacity:0.129;fill:#F2F2F3;" d="M188.004,237.473c-5.125,1.065,15.439,37.369,93.981,21.027
				C305.27,253.655,204.392,234.066,188.004,237.473z"/>
			<path style="opacity:0.1613;fill:#EFEFF0;" d="M188.122,237.574c-5.023,1.055,15.991,37.13,92.407,21.08
				C303.755,253.776,204.038,234.232,188.122,237.574z"/>
			<path style="opacity:0.1935;fill:#ECECED;" d="M188.238,237.675c-4.92,1.044,16.542,36.887,90.834,21.134
				C302.24,253.896,203.683,234.396,188.238,237.675z"/>
			<path style="opacity:0.2258;fill:#E9E9E9;" d="M188.356,237.776c-4.817,1.034,17.092,36.639,89.259,21.186
				C300.725,254.015,203.329,234.564,188.356,237.776z"/>
			<path style="opacity:0.2581;fill:#E6E6E6;" d="M188.474,237.878c-4.715,1.023,17.64,36.384,87.685,21.239
				C299.211,254.133,202.976,234.731,188.474,237.878z"/>
			<path style="opacity:0.2903;fill:#E2E3E3;" d="M188.591,237.98c-4.613,1.013,18.187,36.122,86.111,21.292
				C297.695,254.251,202.622,234.899,188.591,237.98z"/>
			<path style="opacity:0.3226;fill:#DFE0E0;" d="M188.708,238.081c-4.509,1.002,18.734,35.855,84.538,21.345
				C296.181,254.368,202.268,235.067,188.708,238.081z"/>
			<path style="opacity:0.3548;fill:#DCDCDD;" d="M188.825,238.182c-4.407,0.992,19.279,35.584,82.963,21.399
				C294.665,254.484,201.914,235.235,188.825,238.182z"/>
			<path style="opacity:0.3871;fill:#D9D9DA;" d="M188.943,238.283c-4.305,0.982,19.824,35.306,81.389,21.451
				C293.149,254.6,201.56,235.403,188.943,238.283z"/>
			<path style="opacity:0.4194;fill:#D6D6D7;" d="M189.061,238.386c-4.202,0.972,20.367,35.023,79.815,21.503
				C291.635,254.713,201.207,235.576,189.061,238.386z"/>
			<path style="opacity:0.4516;fill:#D2D3D4;" d="M189.178,238.486c-4.099,0.963,20.91,34.733,78.241,21.557
				C290.119,254.825,200.853,235.745,189.178,238.486z"/>
			<path style="opacity:0.4839;fill:#CFD0D1;" d="M189.295,238.588c-3.997,0.953,21.451,34.438,76.667,21.609
				C288.602,254.938,200.499,235.916,189.295,238.588z"/>
			<path style="opacity:0.5161;fill:#CCCDCE;" d="M189.413,238.689c-3.894,0.943,21.99,34.137,75.093,21.662
				C287.086,255.047,200.146,236.089,189.413,238.689z"/>
			<path style="opacity:0.5484;fill:#C9CACB;" d="M189.53,238.791c-3.791,0.935,22.528,33.829,73.519,21.715
				C285.569,255.155,199.793,236.262,189.53,238.791z"/>
			<path style="opacity:0.5806;fill:#C6C6C8;" d="M189.648,238.893c-3.688,0.925,23.064,33.516,71.944,21.768
				C284.053,255.262,199.441,236.436,189.648,238.893z"/>
			<path style="opacity:0.6129;fill:#C3C3C4;" d="M189.766,238.994c-3.586,0.917,23.601,33.197,70.37,21.82
				C282.536,255.365,199.088,236.611,189.766,238.994z"/>
			<path style="opacity:0.6452;fill:#BFC0C1;" d="M189.883,239.096c-3.483,0.908,24.135,32.872,68.797,21.873
				C281.018,255.468,198.736,236.787,189.883,239.096z"/>
			<path style="opacity:0.6774;fill:#BCBDBE;" d="M190,239.197c-3.38,0.9,24.668,32.541,67.223,21.926
				C279.5,255.565,198.383,236.965,190,239.197z"/>
			<path style="opacity:0.7097;fill:#B9BABB;" d="M190.118,239.298c-3.277,0.893,25.199,32.205,65.648,21.979
				C277.98,255.661,198.031,237.142,190.118,239.298z"/>
			<path style="opacity:0.7419;fill:#B6B7B8;" d="M190.235,239.399c-3.174,0.886,25.73,31.862,64.075,22.032
				C276.46,255.753,197.68,237.322,190.235,239.399z"/>
			<path style="opacity:0.7742;fill:#B3B4B5;" d="M190.352,239.501c-3.071,0.88,26.257,31.513,62.5,22.085
				C274.938,255.841,197.328,237.503,190.352,239.501z"/>
			<path style="opacity:0.8065;fill:#AFB0B2;" d="M190.47,239.602c-2.967,0.874,26.784,31.157,60.927,22.138
				C273.415,255.924,196.977,237.686,190.47,239.602z"/>
			<path style="opacity:0.8387;fill:#ACADAF;" d="M190.587,239.704c-2.864,0.869,27.308,30.796,59.352,22.19
				C271.89,256,196.628,237.871,190.587,239.704z"/>
			<path style="opacity:0.871;fill:#A9AAAC;" d="M190.705,239.806c-2.759,0.865,27.831,30.428,57.778,22.243
				C270.362,256.069,196.278,238.058,190.705,239.806z"/>
			<path style="opacity:0.9032;fill:#A6A7A9;" d="M190.822,239.906c-2.655,0.863,28.351,30.056,56.205,22.297
				C268.833,256.129,195.929,238.245,190.822,239.906z"/>
			<path style="opacity:0.9355;fill:#A3A4A6;" d="M190.939,240.008c-2.549,0.862,28.869,29.676,54.63,22.35
				C267.3,256.178,195.581,238.438,190.939,240.008z"/>
			<path style="opacity:0.9677;fill:#9FA1A3;" d="M191.057,240.109c-2.443,0.864,29.384,29.29,53.056,22.402
				C265.763,256.213,195.235,238.631,191.057,240.109z"/>
			<path style="fill:#808080;" d="M191.174,240.211c-2.335,0.87,29.895,28.897,51.482,22.455
				C264.219,256.228,194.892,238.829,191.174,240.211z"/>
		</g>
		
			<radialGradient id="SVGID_00000140714302637661436880000015815992016865238925_" cx="-390.9255" cy="-94.1422" r="37.0341" gradientTransform="matrix(0.7775 -0.629 0.629 0.7775 517.9217 105.1907)" gradientUnits="userSpaceOnUse">
			<stop  offset="0" style="stop-color:#FF3042"/>
			<stop  offset="1" style="stop-color:#610219"/>
		</radialGradient>
		<polygon style="fill:url(#SVGID_00000140714302637661436880000015815992016865238925_);" points="184.436,235.34 199.5,262.447 
			105.873,296.685 		"/>
		
			<radialGradient id="SVGID_00000102518135165476339920000002007932249339676336_" cx="-367.7375" cy="-74.2684" r="57.5663" gradientTransform="matrix(0.7775 -0.629 0.629 0.7775 517.9217 105.1907)" gradientUnits="userSpaceOnUse">
			<stop  offset="0" style="stop-color:#FF3042"/>
			<stop  offset="0.7856" style="stop-color:#B31A2E"/>
			<stop  offset="1" style="stop-color:#610219"/>
		</radialGradient>
		<polygon style="fill:url(#SVGID_00000102518135165476339920000002007932249339676336_);" points="199.5,262.447 264.709,260.823 
			105.873,296.685 		"/>
		
			<radialGradient id="SVGID_00000114788592454769529460000012794204278629536684_" cx="-320.5791" cy="-73.4081" r="30.8537" gradientTransform="matrix(0.7775 -0.629 0.629 0.7775 517.9217 105.1907)" gradientUnits="userSpaceOnUse">
			<stop  offset="0" style="stop-color:#FF3042"/>
			<stop  offset="1" style="stop-color:#610219"/>
		</radialGradient>
		<polygon style="fill:url(#SVGID_00000114788592454769529460000012794204278629536684_);" points="199.5,262.447 264.709,260.823 
			184.436,235.34 		"/>
	</g>
	<g style="opacity:0.98;clip-path:url(#SVGID_00000100348783684999860370000018091744593273925014_);">
		<g>
			<path style="opacity:0;fill:#FFFFFF;" d="M174.903,313.739c-2.32-0.256,98.247-53.243,134.751-49.222
				C319.51,265.604,182.563,314.582,174.903,313.739z"/>
			<path style="opacity:0.0323;fill:#FCFCFC;" d="M175.236,313.58c-2.248-0.263,98.048-53.105,133.496-48.948
				C318.411,265.767,182.651,314.445,175.236,313.58z"/>
			<path style="opacity:0.0645;fill:#F9F9F9;" d="M175.568,313.421c-2.177-0.27,97.851-52.96,132.241-48.676
				C317.313,265.929,182.737,314.31,175.568,313.421z"/>
			<path style="opacity:0.0968;fill:#F5F6F6;" d="M175.9,313.262c-2.105-0.277,97.655-52.81,130.985-48.402
				C316.214,266.093,182.823,314.173,175.9,313.262z"/>
			<path style="opacity:0.129;fill:#F2F2F3;" d="M176.233,313.103c-2.034-0.284,97.458-52.654,129.73-48.13
				C315.117,266.256,182.91,314.035,176.233,313.103z"/>
			<path style="opacity:0.1613;fill:#EFEFF0;" d="M176.565,312.944c-1.961-0.291,97.263-52.491,128.475-47.856
				C314.021,266.422,182.996,313.899,176.565,312.944z"/>
			<path style="opacity:0.1935;fill:#ECECED;" d="M176.897,312.784c-1.891-0.299,97.068-52.323,127.22-47.583
				C312.926,266.586,183.081,313.761,176.897,312.784z"/>
			<path style="opacity:0.2258;fill:#E9E9E9;" d="M177.229,312.625c-1.819-0.306,96.875-52.151,125.964-47.31
				C311.83,266.752,183.166,313.623,177.229,312.625z"/>
			<path style="opacity:0.2581;fill:#E6E6E6;" d="M177.561,312.467c-1.747-0.313,96.683-51.972,124.71-47.038
				C310.737,266.919,183.252,313.486,177.561,312.467z"/>
			<path style="opacity:0.2903;fill:#E2E3E3;" d="M177.895,312.308c-1.677-0.32,96.49-51.782,123.454-46.765
				C309.645,267.087,183.337,313.348,177.895,312.308z"/>
			<path style="opacity:0.3226;fill:#DFE0E0;" d="M178.227,312.148c-1.606-0.328,96.298-51.585,122.199-46.491
				C308.551,267.255,183.421,313.209,178.227,312.148z"/>
			<path style="opacity:0.3548;fill:#DCDCDD;" d="M178.559,311.989c-1.536-0.336,96.107-51.38,120.943-46.219
				C307.46,267.424,183.505,313.071,178.559,311.989z"/>
			<path style="opacity:0.3871;fill:#D9D9DA;" d="M178.891,311.83c-1.465-0.344,95.916-51.166,119.689-45.945
				C306.369,267.596,183.589,312.932,178.891,311.83z"/>
			<path style="opacity:0.4194;fill:#D6D6D7;" d="M179.224,311.672c-1.396-0.352,95.726-50.943,118.434-45.673
				C305.279,267.769,183.671,312.793,179.224,311.672z"/>
			<path style="opacity:0.4516;fill:#D2D3D4;" d="M179.556,311.512c-1.325-0.359,95.535-50.709,117.179-45.399
				C304.191,267.941,183.754,312.65,179.556,311.512z"/>
			<path style="opacity:0.4839;fill:#CFD0D1;" d="M179.888,311.353c-1.256-0.367,95.345-50.464,115.923-45.127
				C303.102,268.117,183.836,312.508,179.888,311.353z"/>
			<path style="opacity:0.5161;fill:#CCCDCE;" d="M180.22,311.193c-1.187-0.376,95.153-50.208,114.669-44.854
				C302.016,268.295,183.917,312.364,180.22,311.193z"/>
			<path style="opacity:0.5484;fill:#C9CACB;" d="M180.553,311.035c-1.119-0.386,94.959-49.939,113.412-44.581
				C300.928,268.477,183.998,312.222,180.553,311.035z"/>
			<path style="opacity:0.5806;fill:#C6C6C8;" d="M180.885,310.876c-1.049-0.395,94.766-49.657,112.157-44.308
				C299.842,268.66,184.078,312.075,180.885,310.876z"/>
			<path style="opacity:0.6129;fill:#C3C3C4;" d="M181.217,310.717c-0.982-0.404,94.57-49.361,110.902-44.035
				C298.755,268.846,184.157,311.927,181.217,310.717z"/>
			<path style="opacity:0.6452;fill:#BFC0C1;" d="M181.55,310.558c-0.914-0.414,94.37-49.049,109.646-43.762
				C297.669,269.036,184.236,311.775,181.55,310.558z"/>
			<path style="opacity:0.6774;fill:#BCBDBE;" d="M181.882,310.398c-0.848-0.426,94.169-48.723,108.392-43.488
				C296.581,269.231,184.314,311.619,181.882,310.398z"/>
			<path style="opacity:0.7097;fill:#B9BABB;" d="M182.214,310.239c-0.781-0.438,93.963-48.381,107.136-43.216
				C295.493,269.432,184.392,311.462,182.214,310.239z"/>
			<path style="opacity:0.7419;fill:#B6B7B8;" d="M182.547,310.08c-0.715-0.452,93.752-48.02,105.881-42.942
				C294.403,269.64,184.471,311.297,182.547,310.08z"/>
			<path style="opacity:0.7742;fill:#B3B4B5;" d="M182.879,309.921c-0.648-0.468,93.534-47.643,104.626-42.67
				C293.311,269.854,184.551,311.127,182.879,309.921z"/>
			<path style="opacity:0.8065;fill:#AFB0B2;" d="M183.211,309.762c-0.581-0.485,93.307-47.245,103.371-42.396
				C292.214,270.079,184.634,310.95,183.211,309.762z"/>
			<path style="opacity:0.8387;fill:#ACADAF;" d="M183.543,309.603c-0.512-0.507,93.07-46.831,102.116-42.124
				C291.11,270.316,184.72,310.769,183.543,309.603z"/>
			<path style="opacity:0.871;fill:#A9AAAC;" d="M183.875,309.443c-0.44-0.53,92.821-46.397,100.861-41.851
				C289.997,270.568,184.815,310.575,183.875,309.443z"/>
			<path style="opacity:0.9032;fill:#A6A7A9;" d="M184.208,309.285c-0.363-0.559,92.553-45.949,99.606-41.578
				C288.868,270.84,184.919,310.379,184.208,309.285z"/>
			<path style="opacity:0.9355;fill:#A3A4A6;" d="M184.54,309.126c-0.277-0.587,92.263-45.485,98.35-41.305
				C287.716,271.136,185.039,310.182,184.54,309.126z"/>
			<path style="opacity:0.9677;fill:#9FA1A3;" d="M184.873,308.967c-0.18-0.615,91.945-45.014,97.095-41.032
				C286.531,271.462,185.172,309.992,184.873,308.967z"/>
			<path style="fill:#808080;" d="M185.205,308.808c-0.073-0.636,91.588-44.541,95.84-40.759
				C285.296,271.828,185.318,309.819,185.205,308.808z"/>
		</g>
		<g>
			<path style="opacity:0;fill:#FFFFFF;" d="M238.649,248.428c-4.555,1.602,14.127,35.605,85.742,10.418
				C343.738,252.04,253.683,243.141,238.649,248.428z"/>
			<path style="opacity:0.0323;fill:#FCFCFC;" d="M238.756,248.515c-4.469,1.584,14.554,35.263,84.427,10.62
				C342.472,252.281,253.401,243.344,238.756,248.515z"/>
			<path style="opacity:0.0645;fill:#F9F9F9;" d="M238.862,248.601c-4.383,1.566,15.036,35.074,83.111,10.822
				C341.221,252.566,253.119,243.546,238.862,248.601z"/>
			<path style="opacity:0.0968;fill:#F5F6F6;" d="M238.969,248.686c-4.3,1.541,15.488,34.801,81.795,11.025
				C339.962,252.828,252.828,243.72,238.969,248.686z"/>
			<path style="opacity:0.129;fill:#F2F2F3;" d="M239.075,248.773c-4.214,1.52,15.938,34.521,80.479,11.228
				C338.703,253.09,252.543,243.913,239.075,248.773z"/>
			<path style="opacity:0.1613;fill:#EFEFF0;" d="M239.183,248.86c-4.13,1.501,16.387,34.237,79.163,11.43
				C337.444,253.352,252.26,244.109,239.183,248.86z"/>
			<path style="opacity:0.1935;fill:#ECECED;" d="M239.288,248.946c-4.044,1.48,16.834,33.947,77.849,11.632
				C336.185,253.611,251.975,244.303,239.288,248.946z"/>
			<path style="opacity:0.2258;fill:#E9E9E9;" d="M239.395,249.033c-3.959,1.46,17.279,33.651,76.532,11.834
				C334.926,253.872,251.69,244.498,239.395,249.033z"/>
			<path style="opacity:0.2581;fill:#E6E6E6;" d="M239.502,249.119c-3.875,1.441,17.722,33.353,75.216,12.037
				C333.667,254.131,251.405,244.693,239.502,249.119z"/>
			<path style="opacity:0.2903;fill:#E2E3E3;" d="M239.608,249.206c-3.789,1.421,18.164,33.047,73.9,12.239
				C332.407,254.39,251.122,244.89,239.608,249.206z"/>
			<path style="opacity:0.3226;fill:#DFE0E0;" d="M239.715,249.292c-3.705,1.401,18.604,32.735,72.584,12.441
				C331.147,254.648,250.838,245.086,239.715,249.292z"/>
			<path style="opacity:0.3548;fill:#DCDCDD;" d="M239.821,249.379c-3.62,1.382,19.042,32.421,71.268,12.644
				C329.888,254.904,250.555,245.283,239.821,249.379z"/>
			<path style="opacity:0.3871;fill:#D9D9DA;" d="M239.928,249.466c-3.534,1.362,19.478,32.097,69.953,12.845
				C328.627,255.16,250.271,245.48,239.928,249.466z"/>
			<path style="opacity:0.4194;fill:#D6D6D7;" d="M240.034,249.552c-3.449,1.343,19.913,31.772,68.638,13.048
				C327.367,255.415,249.987,245.678,240.034,249.552z"/>
			<path style="opacity:0.4516;fill:#D2D3D4;" d="M240.141,249.639c-3.364,1.323,20.346,31.44,67.321,13.25
				C326.106,255.669,249.704,245.878,240.141,249.639z"/>
			<path style="opacity:0.4839;fill:#CFD0D1;" d="M240.247,249.725c-3.279,1.305,20.777,31.106,66.006,13.453
				C324.845,255.922,249.421,246.075,240.247,249.725z"/>
			<path style="opacity:0.5161;fill:#CCCDCE;" d="M240.354,249.811c-3.194,1.286,21.207,30.763,64.69,13.656
				C323.583,256.173,249.138,246.274,240.354,249.811z"/>
			<path style="opacity:0.5484;fill:#C9CACB;" d="M240.46,249.898c-3.109,1.267,21.633,30.413,63.374,13.857
				C322.321,256.423,248.855,246.477,240.46,249.898z"/>
			<path style="opacity:0.5806;fill:#C6C6C8;" d="M240.566,249.984c-3.022,1.248,22.058,30.059,62.059,14.059
				C321.058,256.67,248.574,246.679,240.566,249.984z"/>
			<path style="opacity:0.6129;fill:#C3C3C4;" d="M240.673,250.07c-2.938,1.23,22.48,29.701,60.743,14.262
				C319.794,256.917,248.292,246.88,240.673,250.07z"/>
			<path style="opacity:0.6452;fill:#BFC0C1;" d="M240.779,250.157c-2.853,1.212,22.902,29.337,59.428,14.464
				C318.53,257.16,248.01,247.085,240.779,250.157z"/>
			<path style="opacity:0.6774;fill:#BCBDBE;" d="M240.887,250.244c-2.768,1.194,23.319,28.969,58.111,14.666
				C317.265,257.401,247.729,247.29,240.887,250.244z"/>
			<path style="opacity:0.7097;fill:#B9BABB;" d="M240.992,250.33c-2.681,1.177,23.737,28.594,56.797,14.869
				C315.999,257.64,247.448,247.496,240.992,250.33z"/>
			<path style="opacity:0.7419;fill:#B6B7B8;" d="M241.1,250.417c-2.596,1.161,24.15,28.212,55.48,15.07
				C314.729,257.874,247.167,247.703,241.1,250.417z"/>
			<path style="opacity:0.7742;fill:#B3B4B5;" d="M241.205,250.503c-2.509,1.145,24.562,27.826,54.165,15.273
				C313.461,258.105,246.887,247.91,241.205,250.503z"/>
			<path style="opacity:0.8065;fill:#AFB0B2;" d="M241.313,250.59c-2.423,1.129,24.971,27.436,52.849,15.476
				C312.188,258.332,246.609,248.122,241.313,250.59z"/>
			<path style="opacity:0.8387;fill:#ACADAF;" d="M241.419,250.676c-2.336,1.114,25.376,27.038,51.532,15.678
				C310.914,258.552,246.331,248.332,241.419,250.676z"/>
			<path style="opacity:0.871;fill:#A9AAAC;" d="M241.525,250.763c-2.248,1.101,25.781,26.635,50.217,15.88
				C309.637,258.767,246.054,248.545,241.525,250.763z"/>
			<path style="opacity:0.9032;fill:#A6A7A9;" d="M241.632,250.85c-2.16,1.088,26.182,26.229,48.901,16.082
				C308.355,258.973,245.777,248.761,241.632,250.85z"/>
			<path style="opacity:0.9355;fill:#A3A4A6;" d="M241.738,250.936c-2.071,1.078,26.579,25.816,47.586,16.284
				C307.069,259.169,245.502,248.977,241.738,250.936z"/>
			<path style="opacity:0.9677;fill:#9FA1A3;" d="M241.845,251.021c-1.981,1.068,26.973,25.397,46.27,16.487
				C305.776,259.353,245.229,249.196,241.845,251.021z"/>
			<path style="fill:#808080;" d="M241.951,251.108c-1.889,1.063,27.363,24.974,44.954,16.69
				C304.476,259.52,244.958,249.419,241.951,251.108z"/>
		</g>
		
			<radialGradient id="SVGID_00000009562738665681269860000017284497834664750990_" cx="-984.0131" cy="-169.9548" r="38.6926" gradientTransform="matrix(0.5763 -0.6517 0.5638 0.6593 877.3141 -238.3075)" gradientUnits="userSpaceOnUse">
			<stop  offset="0" style="stop-color:#FF3042"/>
			<stop  offset="1" style="stop-color:#610219"/>
		</radialGradient>
		<polygon style="fill:url(#SVGID_00000009562738665681269860000017284497834664750990_);" points="235.914,247.061 
			250.698,271.738 174.903,313.739 		"/>
		
			<radialGradient id="SVGID_00000049185192564107425650000004968097483597836960_" cx="-959.7826" cy="-149.1916" r="60.1463" gradientTransform="matrix(0.5763 -0.6517 0.5638 0.6593 877.3141 -238.3075)" gradientUnits="userSpaceOnUse">
			<stop  offset="0" style="stop-color:#FF3042"/>
			<stop  offset="0.7856" style="stop-color:#B31A2E"/>
			<stop  offset="1" style="stop-color:#610219"/>
		</radialGradient>
		<polygon style="fill:url(#SVGID_00000049185192564107425650000004968097483597836960_);" points="250.698,271.738 
			305.251,263.902 174.903,313.739 		"/>
		
			<radialGradient id="SVGID_00000075126860314847562080000009571517604350695072_" cx="-910.5095" cy="-148.299" r="32.2375" gradientTransform="matrix(0.5763 -0.6517 0.5638 0.6593 877.3141 -238.3075)" gradientUnits="userSpaceOnUse">
			<stop  offset="0" style="stop-color:#FF3042"/>
			<stop  offset="1" style="stop-color:#610219"/>
		</radialGradient>
		<polygon style="fill:url(#SVGID_00000075126860314847562080000009571517604350695072_);" points="250.698,271.738 
			305.251,263.902 235.914,247.061 		"/>
	</g>
	<g style="opacity:0.3;clip-path:url(#SVGID_00000100348783684999860370000018091744593273925014_);">
		<defs>
			<polygon id="SVGID_00000144336601835261977160000013598980937842536077_" style="opacity:0.3;" points="247.899,243.827 
				289.499,251.403 244.908,325.44 232.084,315.6 			"/>
		</defs>
		<clipPath id="SVGID_00000114062430711123998910000013985673306466080919_">
			<use xlink:href="#SVGID_00000144336601835261977160000013598980937842536077_"  style="overflow:visible;"/>
		</clipPath>
		<g style="clip-path:url(#SVGID_00000114062430711123998910000013985673306466080919_);">
			
				<rect x="218.008" y="249.913" transform="matrix(0.4946 -0.8691 0.8691 0.4946 -108.1855 361.5398)" style="opacity:0.13;fill:#E6E6E6;" width="77.535" height="47.759"/>
			<polygon style="opacity:0.67;fill:#E6E6E6;" points="239.349,269.226 229.476,295.24 229.403,295.431 250.866,290.515 
				251.328,289.703 251.659,289.89 251.475,289.5 269.784,269.702 269.862,269.619 263.233,249.855 263.196,249.743 			"/>
			<polygon style="opacity:0.03;fill:#E6E6E6;" points="222.424,298.85 229.708,295.31 218.75,292.328 216.846,295.675 			"/>
			<polygon style="opacity:0.61;fill:#E6E6E6;" points="255.195,228.288 254.578,229.373 255.741,228.599 			"/>
			<polygon style="opacity:0.25;fill:#E6E6E6;" points="268.034,235.595 263.217,249.931 273.781,238.865 			"/>
			<polygon style="opacity:0.28;fill:#E6E6E6;" points="273.671,238.803 263.211,249.757 281.132,250.431 284.384,244.899 			"/>
			<polygon style="opacity:0.89;fill:#E6E6E6;" points="263.395,249.615 263.354,249.613 263.079,249.839 269.764,269.768 
				281.218,250.284 			"/>
			<polygon style="opacity:0.67;fill:#E6E6E6;" points="263.363,232.936 255.268,245.172 263.391,249.795 268.142,235.656 			"/>
			<polygon style="opacity:0.8;fill:#E6E6E6;" points="296.704,251.91 294.739,250.792 281.081,250.279 269.619,269.775 
				293.97,256.714 			"/>
			<polygon style="opacity:0.79;fill:#E6E6E6;" points="240.326,309.037 250.961,290.349 229.51,295.262 222.286,298.771 			"/>
			<polygon style="opacity:0.55;fill:#E6E6E6;" points="234.723,264.263 239.396,269.378 255.46,245.101 248.033,240.874 			"/>
			<polygon style="opacity:0.27;fill:#E6E6E6;" points="218.671,292.467 229.536,295.424 239.49,269.196 232.139,268.802 			"/>
			<polygon style="opacity:0.25;fill:#E6E6E6;" points="255.616,228.527 254.719,229.125 247.955,241.011 255.373,245.232 
				263.469,232.996 			"/>
			<polygon style="opacity:0.3;fill:#E6E6E6;" points="251.227,289.452 258.849,306.17 270.48,292.06 			"/>
			<polygon style="opacity:0.07;fill:#E6E6E6;" points="232.057,268.947 239.58,269.351 234.803,264.122 			"/>
			<polygon style="opacity:0.26;fill:#E6E6E6;" points="265.202,307.264 258.745,305.941 261.93,313.014 			"/>
			<polygon style="opacity:0.38;fill:#E6E6E6;" points="273.612,292.485 270.339,292.041 258.749,306.099 265.123,307.404 			"/>
			<polygon style="opacity:0.29;fill:#E6E6E6;" points="281.372,278.852 294.093,256.498 269.781,269.539 251.211,289.604 
				270.366,292.199 			"/>
			<polygon style="opacity:0.12;fill:#E6E6E6;" points="257.076,318.569 258.354,319.297 258.827,318.465 			"/>
			<polygon style="opacity:0.07;fill:#E6E6E6;" points="284.279,244.84 280.995,250.426 295.021,250.953 			"/>
			<polygon style="opacity:0.27;fill:#E6E6E6;" points="246.827,312.736 257.302,318.697 258.743,318.613 262.019,312.858 
				258.942,306.028 258.907,305.95 			"/>
			<polygon style="opacity:0.09;fill:#E6E6E6;" points="239.124,269.571 263.136,249.955 263.238,249.871 263.096,249.446 
				255.354,245.041 			"/>
			<polygon style="opacity:0.24;fill:#E6E6E6;" points="240.221,308.977 246.96,312.813 258.962,306.07 251.741,290.231 
				251.734,290.216 251.361,289.4 			"/>
			<polygon style="opacity:0.31;fill:#E6E6E6;" points="281.723,278.234 270.383,291.988 270.225,292.18 273.532,292.628 			"/>
		</g>
	</g>
	<g style="opacity:0.98;clip-path:url(#SVGID_00000100348783684999860370000018091744593273925014_);">
		<g>
			<path style="opacity:0;fill:#FFFFFF;" d="M216.118,354.861c-3.927-0.74,15.119-88.535,76.906-76.906
				C309.709,281.098,229.086,357.302,216.118,354.861z"/>
			<path style="opacity:0.0323;fill:#FCFCFC;" d="M216.219,354.602c-3.852-0.755,15.511-88.232,75.752-76.537
				C308.612,281.295,228.851,357.024,216.219,354.602z"/>
			<path style="opacity:0.0645;fill:#F9F9F9;" d="M216.32,354.341c-3.78-0.755,15.903-87.909,74.598-76.167
				C307.516,281.494,228.605,356.795,216.32,354.341z"/>
			<path style="opacity:0.0968;fill:#F5F6F6;" d="M216.42,354.081c-3.707-0.763,16.292-87.577,73.444-75.799
				C306.42,281.694,228.364,356.54,216.42,354.081z"/>
			<path style="opacity:0.129;fill:#F2F2F3;" d="M216.521,353.82c-3.633-0.771,16.681-87.23,72.289-75.429
				C305.324,281.897,228.126,356.282,216.521,353.82z"/>
			<path style="opacity:0.1613;fill:#EFEFF0;" d="M216.622,353.56c-3.561-0.778,17.068-86.871,71.136-75.059
				C304.229,282.1,227.886,356.024,216.622,353.56z"/>
			<path style="opacity:0.1935;fill:#ECECED;" d="M216.723,353.301c-3.487-0.787,17.454-86.498,69.981-74.69
				C303.135,282.304,227.645,355.768,216.723,353.301z"/>
			<path style="opacity:0.2258;fill:#E9E9E9;" d="M216.823,353.04c-3.414-0.796,17.839-86.113,68.827-74.321
				C302.041,282.51,227.405,355.508,216.823,353.04z"/>
			<path style="opacity:0.2581;fill:#E6E6E6;" d="M216.925,352.78c-3.341-0.805,18.223-85.715,67.673-73.951
				C300.947,282.719,227.165,355.247,216.925,352.78z"/>
			<path style="opacity:0.2903;fill:#E2E3E3;" d="M217.025,352.521c-3.268-0.814,18.605-85.305,66.52-73.582
				C299.853,282.929,226.925,354.985,217.025,352.521z"/>
			<path style="opacity:0.3226;fill:#DFE0E0;" d="M217.126,352.26c-3.195-0.823,18.984-84.881,65.365-73.213
				C298.761,283.14,226.685,354.722,217.126,352.26z"/>
			<path style="opacity:0.3548;fill:#DCDCDD;" d="M217.227,351.999c-3.123-0.833,19.362-84.442,64.211-72.843
				C297.667,283.353,226.443,354.457,217.227,351.999z"/>
			<path style="opacity:0.3871;fill:#D9D9DA;" d="M217.328,351.739c-3.05-0.843,19.737-83.991,63.056-72.474
				C296.574,283.57,226.204,354.19,217.328,351.739z"/>
			<path style="opacity:0.4194;fill:#D6D6D7;" d="M217.429,351.479c-2.977-0.852,20.109-83.528,61.902-72.104
				C295.481,283.79,225.964,353.924,217.429,351.479z"/>
			<path style="opacity:0.4516;fill:#D2D3D4;" d="M217.529,351.22c-2.905-0.864,20.48-83.053,60.748-71.735
				C294.388,284.013,225.724,353.656,217.529,351.22z"/>
			<path style="opacity:0.4839;fill:#CFD0D1;" d="M217.63,350.959c-2.832-0.875,20.849-82.562,59.594-71.366
				C293.294,284.236,225.483,353.384,217.63,350.959z"/>
			<path style="opacity:0.5161;fill:#CCCDCE;" d="M217.73,350.699c-2.759-0.886,21.214-82.058,58.439-70.996
				C292.199,284.466,225.244,353.111,217.73,350.699z"/>
			<path style="opacity:0.5484;fill:#C9CACB;" d="M217.832,350.439c-2.687-0.898,21.577-81.542,57.285-70.627
				C291.104,284.698,225.005,352.836,217.832,350.439z"/>
			<path style="opacity:0.5806;fill:#C6C6C8;" d="M217.932,350.179c-2.614-0.91,21.936-81.013,56.132-70.258
				C290.009,284.935,224.767,352.56,217.932,350.179z"/>
			<path style="opacity:0.6129;fill:#C3C3C4;" d="M218.033,349.918c-2.541-0.924,22.29-80.469,54.977-69.888
				C288.911,285.178,224.528,352.279,218.033,349.918z"/>
			<path style="opacity:0.6452;fill:#BFC0C1;" d="M218.134,349.658c-2.468-0.939,22.641-79.915,53.823-69.519
				C287.811,285.426,224.29,351.998,218.134,349.658z"/>
			<path style="opacity:0.6774;fill:#BCBDBE;" d="M218.234,349.398c-2.395-0.953,22.988-79.348,52.67-69.15
				C286.71,285.679,224.053,351.715,218.234,349.398z"/>
			<path style="opacity:0.7097;fill:#B9BABB;" d="M218.336,349.138c-2.321-0.969,23.33-78.766,51.515-68.78
				C285.607,285.94,223.818,351.426,218.336,349.138z"/>
			<path style="opacity:0.7419;fill:#B6B7B8;" d="M218.436,348.878c-2.247-0.987,23.668-78.173,50.36-68.411
				C284.5,286.21,223.582,351.138,218.436,348.878z"/>
			<path style="opacity:0.7742;fill:#B3B4B5;" d="M218.537,348.618c-2.173-1.006,24-77.566,49.206-68.042
				C283.39,286.488,223.348,350.845,218.537,348.618z"/>
			<path style="opacity:0.8065;fill:#AFB0B2;" d="M218.638,348.357c-2.098-1.025,24.327-76.947,48.052-67.672
				C282.273,286.777,223.117,350.547,218.638,348.357z"/>
			<path style="opacity:0.8387;fill:#ACADAF;" d="M218.739,348.098c-2.021-1.048,24.646-76.317,46.898-67.303
				C281.152,287.08,222.887,350.248,218.739,348.098z"/>
			<path style="opacity:0.871;fill:#A9AAAC;" d="M218.84,347.837c-1.943-1.071,24.958-75.676,45.743-66.933
				C280.023,287.398,222.66,349.943,218.84,347.837z"/>
			<path style="opacity:0.9032;fill:#A6A7A9;" d="M218.94,347.577c-1.864-1.1,25.262-75.023,44.59-66.563
				C278.885,287.734,222.436,349.639,218.94,347.577z"/>
			<path style="opacity:0.9355;fill:#A3A4A6;" d="M219.041,347.317c-1.781-1.129,25.557-74.361,43.436-66.195
				C277.733,288.091,222.214,349.328,219.041,347.317z"/>
			<path style="opacity:0.9677;fill:#9FA1A3;" d="M219.142,347.058c-1.695-1.161,25.84-73.689,42.281-65.826
				C276.567,288.475,221.999,349.016,219.142,347.058z"/>
			<path style="fill:#808080;" d="M219.243,346.797c-1.605-1.198,26.11-73.01,41.127-65.456
				C275.38,288.89,221.789,348.7,219.243,346.797z"/>
		</g>
		<g>
			<path style="opacity:0;fill:#FFFFFF;" d="M153.331,239.87c-2.746,2.482,104.257,68.189,147.422,29.134
				C312.412,258.452,162.394,231.673,153.331,239.87z"/>
			<path style="opacity:0.0323;fill:#FCFCFC;" d="M153.688,240.044c-2.67,2.453,104.241,67.795,146.015,29.364
				C311.218,258.815,162.447,231.998,153.688,240.044z"/>
			<path style="opacity:0.0645;fill:#F9F9F9;" d="M154.045,240.218c-2.595,2.423,104.215,67.384,144.607,29.595
				C310.022,259.176,162.501,232.322,154.045,240.218z"/>
			<path style="opacity:0.0968;fill:#F5F6F6;" d="M154.401,240.391c-2.52,2.394,104.178,66.957,143.199,29.825
				C308.827,259.533,162.554,232.646,154.401,240.391z"/>
			<path style="opacity:0.129;fill:#F2F2F3;" d="M154.758,240.565c-2.444,2.363,104.133,66.517,141.792,30.055
				C307.632,259.891,162.608,232.974,154.758,240.565z"/>
			<path style="opacity:0.1613;fill:#EFEFF0;" d="M155.115,240.739c-2.369,2.335,104.081,66.064,140.384,30.285
				C306.436,260.244,162.662,233.3,155.115,240.739z"/>
			<path style="opacity:0.1935;fill:#ECECED;" d="M155.472,240.912c-2.294,2.306,104.019,65.599,138.976,30.517
				C305.242,260.596,162.716,233.628,155.472,240.912z"/>
			<path style="opacity:0.2258;fill:#E9E9E9;" d="M155.828,241.086c-2.218,2.278,103.946,65.117,137.568,30.746
				C304.046,260.945,162.77,233.958,155.828,241.086z"/>
			<path style="opacity:0.2581;fill:#E6E6E6;" d="M156.185,241.26c-2.143,2.249,103.863,64.623,136.161,30.977
				C302.851,261.293,162.826,234.289,156.185,241.26z"/>
			<path style="opacity:0.2903;fill:#E2E3E3;" d="M156.542,241.434c-2.068,2.222,103.771,64.114,134.753,31.208
				C301.654,261.638,162.882,234.621,156.542,241.434z"/>
			<path style="opacity:0.3226;fill:#DFE0E0;" d="M156.898,241.607c-1.993,2.194,103.666,63.591,133.345,31.437
				C300.457,261.979,162.939,234.956,156.898,241.607z"/>
			<path style="opacity:0.3548;fill:#DCDCDD;" d="M157.255,241.781c-1.917,2.167,103.553,63.056,131.937,31.668
				C299.26,262.317,162.998,235.291,157.255,241.781z"/>
			<path style="opacity:0.3871;fill:#D9D9DA;" d="M157.612,241.955c-1.842,2.141,103.425,62.504,130.53,31.898
				C298.06,262.653,163.055,235.628,157.612,241.955z"/>
			<path style="opacity:0.4194;fill:#D6D6D7;" d="M157.968,242.129c-1.766,2.114,103.288,61.939,129.122,32.129
				C296.859,262.986,163.115,235.968,157.968,242.129z"/>
			<path style="opacity:0.4516;fill:#D2D3D4;" d="M158.325,242.303c-1.69,2.089,103.135,61.358,127.714,32.359
				C295.656,263.315,163.176,236.309,158.325,242.303z"/>
			<path style="opacity:0.4839;fill:#CFD0D1;" d="M158.681,242.476c-1.615,2.064,102.971,60.767,126.307,32.59
				C294.45,263.641,163.237,236.651,158.681,242.476z"/>
			<path style="opacity:0.5161;fill:#CCCDCE;" d="M159.038,242.65c-1.539,2.04,102.794,60.158,124.899,32.819
				C293.242,263.962,163.301,236.998,159.038,242.65z"/>
			<path style="opacity:0.5484;fill:#C9CACB;" d="M159.395,242.823c-1.462,2.017,102.603,59.537,123.492,33.051
				C292.03,264.28,163.366,237.346,159.395,242.823z"/>
			<path style="opacity:0.5806;fill:#C6C6C8;" d="M159.752,242.997c-1.386,1.995,102.394,58.903,122.083,33.281
				C290.814,264.593,163.435,237.696,159.752,242.997z"/>
			<path style="opacity:0.6129;fill:#C3C3C4;" d="M160.108,243.171c-1.309,1.973,102.174,58.256,120.676,33.511
				C289.592,264.901,163.504,238.05,160.108,243.171z"/>
			<path style="opacity:0.6452;fill:#BFC0C1;" d="M160.465,243.345c-1.229,1.951,101.937,57.597,119.269,33.741
				C288.364,265.205,163.576,238.405,160.465,243.345z"/>
			<path style="opacity:0.6774;fill:#BCBDBE;" d="M160.822,243.519c-1.15,1.931,101.684,56.924,117.86,33.972
				C287.13,265.503,163.654,238.765,160.822,243.519z"/>
			<path style="opacity:0.7097;fill:#B9BABB;" d="M161.178,243.692c-1.069,1.912,101.417,56.24,116.453,34.202
				C285.887,265.794,163.732,239.125,161.178,243.692z"/>
			<path style="opacity:0.7419;fill:#B6B7B8;" d="M161.535,243.866c-0.988,1.895,101.131,55.546,115.045,34.433
				C284.633,266.079,163.817,239.49,161.535,243.866z"/>
			<path style="opacity:0.7742;fill:#B3B4B5;" d="M161.892,244.04c-0.903,1.877,100.828,54.841,113.638,34.662
				C283.366,266.356,163.905,239.856,161.892,244.04z"/>
			<path style="opacity:0.8065;fill:#AFB0B2;" d="M162.248,244.213c-0.817,1.861,100.506,54.131,112.23,34.894
				C282.085,266.627,163.998,240.225,162.248,244.213z"/>
			<path style="opacity:0.8387;fill:#ACADAF;" d="M162.605,244.387c-0.728,1.848,100.165,53.411,110.823,35.124
				C280.785,266.888,164.098,240.596,162.605,244.387z"/>
			<path style="opacity:0.871;fill:#A9AAAC;" d="M162.961,244.561c-0.634,1.834,99.803,52.686,109.415,35.355
				C279.462,267.138,164.204,240.967,162.961,244.561z"/>
			<path style="opacity:0.9032;fill:#A6A7A9;" d="M163.318,244.734c-0.536,1.819,99.421,51.957,108.007,35.585
				C278.111,267.378,164.318,241.339,163.318,244.734z"/>
			<path style="opacity:0.9355;fill:#A3A4A6;" d="M163.675,244.908c-0.431,1.807,99.018,51.23,106.6,35.815
				C276.727,267.606,164.438,241.708,163.675,244.908z"/>
			<path style="opacity:0.9677;fill:#9FA1A3;" d="M164.031,245.082c-0.319,1.792,98.588,50.507,105.191,36.045
				C275.297,267.823,164.567,242.073,164.031,245.082z"/>
			<path style="fill:#808080;" d="M164.388,245.256c-0.198,1.775,98.133,49.793,103.784,36.275
				C273.814,268.025,164.708,242.434,164.388,245.256z"/>
		</g>
		
			<linearGradient id="SVGID_00000168803404323864851670000001724310694206058119_" gradientUnits="userSpaceOnUse" x1="225.022" y1="171.1054" x2="353.4059" y2="166.6987" gradientTransform="matrix(0.1381 -0.9904 0.9904 0.1381 -22.3775 534.0704)">
			<stop  offset="0" style="stop-color:#404040"/>
			<stop  offset="1" style="stop-color:#000000"/>
		</linearGradient>
		<polygon style="fill:url(#SVGID_00000168803404323864851670000001724310694206058119_);" points="146.189,237.006 
			225.599,284.827 216.118,354.861 		"/>
		
			<linearGradient id="SVGID_00000097472052411986255760000013539709362965320581_" gradientUnits="userSpaceOnUse" x1="238.8419" y1="256.0889" x2="333.9342" y2="157.633" gradientTransform="matrix(0.1381 -0.9904 0.9904 0.1381 -22.3775 534.0704)">
			<stop  offset="0" style="stop-color:#404040"/>
			<stop  offset="1" style="stop-color:#000000"/>
		</linearGradient>
		<polygon style="fill:url(#SVGID_00000097472052411986255760000013539709362965320581_);" points="225.599,284.827 
			285.264,276.309 216.118,354.861 		"/>
		
			<linearGradient id="SVGID_00000066505071904860485120000018350716367192463232_" gradientUnits="userSpaceOnUse" x1="362.6101" y1="215.6408" x2="261.7817" y2="182.3912" gradientTransform="matrix(0.1381 -0.9904 0.9904 0.1381 -22.3775 534.0704)">
			<stop  offset="0" style="stop-color:#404040"/>
			<stop  offset="1" style="stop-color:#000000"/>
		</linearGradient>
		<polygon style="fill:url(#SVGID_00000066505071904860485120000018350716367192463232_);" points="225.599,284.827 
			285.264,276.309 146.189,237.006 		"/>
	</g>
	<g style="opacity:0.3;clip-path:url(#SVGID_00000100348783684999860370000018091744593273925014_);">
		<defs>
			<polygon id="SVGID_00000067217742872725326870000006892821968919003027_" style="opacity:0.3;" points="193.908,263.127 
				152.377,227.836 258.683,245.584 			"/>
		</defs>
		<clipPath id="SVGID_00000129920417543380097160000017715050099774663609_">
			<use xlink:href="#SVGID_00000067217742872725326870000006892821968919003027_"  style="overflow:visible;"/>
		</clipPath>
		<g style="clip-path:url(#SVGID_00000129920417543380097160000017715050099774663609_);">
			
				<rect x="194.473" y="220.043" transform="matrix(0.4946 -0.8691 0.8691 0.4946 -107.7768 319.2874)" style="opacity:0.15;fill:#E6E6E6;" width="52.355" height="64.545"/>
			<polygon style="opacity:0.85;fill:#E6E6E6;" points="222.949,268.036 218.918,281.449 227.156,286.137 236.495,285.76 
				236.809,285.209 237.14,285.396 236.916,285.074 241.385,281.131 248.73,268.224 242.295,256.64 242.245,256.55 			"/>
			<polygon style="opacity:0.24;fill:#E6E6E6;" points="228.462,226.641 221.033,244.553 242.918,234.867 			"/>
			<polygon style="opacity:0.87;fill:#E6E6E6;" points="247.003,237.192 242.29,256.694 257.987,243.443 			"/>
			<polygon style="opacity:0.55;fill:#E6E6E6;" points="257.877,243.381 242.262,256.563 254.152,258.695 261.646,245.526 			"/>
			<polygon style="opacity:0.32;fill:#E6E6E6;" points="254.21,258.595 242.41,256.48 242.374,256.474 242.15,256.606 
				248.667,268.335 			"/>
			<polygon style="opacity:0.11;fill:#E6E6E6;" points="245.423,236.293 234.309,251.993 242.432,256.616 247.111,237.254 			"/>
			<polygon style="opacity:0.12;fill:#E6E6E6;" points="190.938,260.119 193.513,263.605 198.713,263.467 214.251,259.663 			"/>
			<polygon style="opacity:0.87;fill:#E6E6E6;" points="186.418,262.953 191.763,265.995 193.649,263.503 			"/>
			<polygon style="opacity:0.53;fill:#E6E6E6;" points="226.975,286.034 234.049,290.06 236.56,285.647 			"/>
			<polygon style="opacity:0.7;fill:#E6E6E6;" points="213.711,259.669 213.678,259.736 223.014,268.158 234.477,251.966 
				221.116,244.362 			"/>
			<polygon style="opacity:0.99;fill:#E6E6E6;" points="179.568,259.055 181.941,260.405 191.15,260.226 184.232,250.859 			"/>
			<polygon style="opacity:0.69;fill:#E6E6E6;" points="185.382,249.009 185.302,248.979 184.173,250.963 191.018,260.228 
				214.032,259.777 			"/>
			<polygon style="opacity:0.51;fill:#E6E6E6;" points="181.754,260.299 186.64,263.079 193.653,263.612 191.071,260.117 			"/>
			<polygon style="opacity:0.01;fill:#E6E6E6;" points="219.025,281.51 223.075,268.033 198.72,263.358 193.504,263.495 
				191.657,265.935 			"/>
			<polygon style="opacity:0.23;fill:#E6E6E6;" points="242.793,234.796 221.203,244.352 221.022,244.432 234.415,252.053 
				245.527,236.352 			"/>
			<polygon style="opacity:0;fill:#E6E6E6;" points="238.863,285.563 236.681,285.005 238.041,287.006 			"/>
			<polygon style="opacity:0.15;fill:#E6E6E6;" points="212.51,217.563 221.057,244.351 221.14,244.61 228.567,226.701 			"/>
			<polygon style="opacity:0.65;fill:#E6E6E6;" points="213.744,259.878 221.219,244.426 204.116,233.135 			"/>
			<polygon style="opacity:0.18;fill:#E6E6E6;" points="198.451,263.417 223.179,268.162 213.761,259.667 			"/>
			<polygon style="opacity:0.23;fill:#E6E6E6;" points="241.561,280.82 236.688,285.117 238.808,285.659 			"/>
			<polygon style="opacity:0.22;fill:#E6E6E6;" points="193.768,234.102 185.249,249.073 213.842,259.82 204.263,233.211 			"/>
			<polygon style="opacity:0.17;fill:#E6E6E6;" points="222.79,268.267 242.219,256.702 242.302,256.652 242.112,256.311 
				234.371,251.905 			"/>
			<polygon style="opacity:0.86;fill:#E6E6E6;" points="193.701,234.22 204.194,233.328 204.28,233.321 205.417,213.633 			"/>
			<polygon style="opacity:0.84;fill:#E6E6E6;" points="233.943,290 235.752,291.029 238.102,286.9 237.263,285.666 
				237.254,285.653 236.798,284.983 			"/>
			<polygon style="opacity:0.37;fill:#E6E6E6;" points="205.463,213.552 205.286,213.864 204.167,233.236 204.164,233.294 
				221.245,244.57 212.654,217.645 			"/>
		</g>
	</g>
	<g style="opacity:0.3;clip-path:url(#SVGID_00000100348783684999860370000018091744593273925014_);">
		<defs>
			<polygon id="SVGID_00000109010760031448747720000006042056499247450755_" style="opacity:0.3;" points="240.349,200.895 
				247.565,141.559 182.22,246.041 			"/>
		</defs>
		<clipPath id="SVGID_00000103954207967972537610000010614106952044061346_">
			<use xlink:href="#SVGID_00000109010760031448747720000006042056499247450755_"  style="overflow:visible;"/>
		</clipPath>
		<g style="clip-path:url(#SVGID_00000103954207967972537610000010614106952044061346_);">
			
				<rect x="188.709" y="205.797" transform="matrix(0.4946 -0.8691 0.8691 0.4946 -80.4393 299.2396)" style="opacity:0.45;fill:#E6E6E6;" width="56.751" height="25.978"/>
			<polygon style="opacity:0.45;fill:#E6E6E6;" points="242.186,200.939 241.964,200.182 240.07,199.104 231.575,219.585 			"/>
			<polygon style="opacity:0.48;fill:#E6E6E6;" points="242.458,200.462 241.822,200.101 242.108,201.076 			"/>
			<polygon style="opacity:0.74;fill:#E6E6E6;" points="232.058,218.737 240.176,199.164 235.325,196.404 215.979,194.388 
				215.913,194.381 211.084,202.867 221.863,236.649 			"/>
			<polygon style="opacity:0.2;fill:#E6E6E6;" points="213.38,249.327 214.339,249.873 220.731,238.64 206.041,228.943 			"/>
			<polygon style="opacity:0.12;fill:#E6E6E6;" points="215.854,194.484 235.561,196.537 219.793,187.564 			"/>
			<polygon style="opacity:0.05;fill:#E6E6E6;" points="213.531,249.413 206.188,229.02 195.694,229.91 191.674,236.975 			"/>
			<polygon style="opacity:0.95;fill:#E6E6E6;" points="195.627,230.027 206.12,229.137 206.206,229.129 207.343,209.441 			"/>
			<polygon style="opacity:0.37;fill:#E6E6E6;" points="221.939,236.517 211.229,202.951 211.16,202.734 207.211,209.672 
				206.093,229.045 206.09,229.102 220.678,238.732 			"/>
		</g>
	</g>
</g>
</svg>
